<svg width="100" height="100" viewBox="0 0 100 100" fill="none" xmlns="http://www.w3.org/2000/svg">
<path d="M100 50C100 77.6142 77.6142 100 50 100C22.3858 100 0 77.6142 0 50C0 22.3858 22.3858 0 50 0C77.6142 0 100 22.3858 100 50ZM10 50C10 72.0914 27.9086 90 50 90C72.0914 90 90 72.0914 90 50C90 27.9086 72.0914 10 50 10C27.9086 10 10 27.9086 10 50Z" fill="#3A3A3A"/>
<circle cx="50" cy="49" r="41" fill="#6AC3D7"/>
<line x1="72.8477" y1="34.688" x2="41.9989" y2="65.5367" stroke="#3A3A3A" stroke-width="6" stroke-linecap="round"/>
<line x1="40.8531" y1="65.5391" x2="27.9999" y2="52.6859" stroke="#3A3A3A" stroke-width="6" stroke-linecap="round"/>
</svg>
